<?xml version="1.0" encoding="UTF-8"?>
<svg id="Layer_1" xmlns="http://www.w3.org/2000/svg" version="1.1" viewBox="0 0 67.88 41.66">
  <!-- Generator: Adobe Illustrator 29.8.1, SVG Export Plug-In . SVG Version: 2.1.1 Build 2)  -->
  <defs>
    <style>
      .st0 {
        fill: #e2007a;
      }
    </style>
  </defs>
  <path class="st0" d="M42.76,13.55l.93-2.12,2.69,1.19c.42,0,.81-1.12,1.23-1.08l8.32,2.3.08.16-.92,3.76.15.1c1.13.25,2.39.9,3.51,1.08,1.84.3,3.97.26,5.85.48.11.01.3.03.36.13l.62,4.73-7.3,2.92-1.57.13-.59,4.04-1.67,3.01c-.26.06-3.16-3.41-3.64-3.8-.29-.18-1.57-.47-1.88-.38-.06.02-.9.61-.91.67-.16.45.32,1.33.21,1.87-.87,1.58-1.4,3.63-2.26,5.18-.04.08-.09.2-.21.18l-7.41-5.41c-.26-.21-1.37.56-1.41.73-.04.44.58,1.24.53,1.63-.05.34-.85,1.57-1.05,2.04-.13.31-.67,2.08-.8,2.13l-1.61-.59-.68,1.62-1.53-.55c-.06-.42.87-1.39.78-1.69-.05-.17-2.13-.76-2.5-.91-3.75-1.51-7.46-3.88-11.19-5.51-.47-.28-2.33-1.92-2.58-1.94-.21-.02-.93.61-.97.77-.04.18.35,1.27.39,1.64.08.9-.18,1.86-.08,2.78,0,.11-.03.21-.12.28-.23.19-3.96-.66-4.56-.56l1.35,2.45-9.94-3.4c-.13-.19.24-1.38.34-1.64,1.02-2.57,2.43-3.26,4.85-4.34l4.23-5.11,1.69-5.83,5.13-6.82c.65-.43,1.48-.49,2.17-.83s2.21-1.7,2.75-1.84c.5-.13,2.06.13,2.36-.09.44-.82,1.11-1.62,1.52-2.44.48-.97.8-2.16,1.22-3.17.13-.04.26,0,.39.03.79.16,2.25.54,2.77,1.11,1.47,1.6,2.61,3.77,4.17,5.33l6.36,2.03c.13.11.05.08,0,.16-.17.33-.52.51-.71.88-.12.22-.66,1.72-.65,1.89,0,.07.03.11.08.16.1.1,1.65.55,1.73.5Z"/>
</svg>