<?xml version="1.0" encoding="UTF-8"?>
<svg xmlns="http://www.w3.org/2000/svg" version="1.1" viewBox="0 0 800 800">
  <defs>
    <style>
      .cls-1 {
        display: none;
      }

      .cls-2 {
        fill: #E2007A;
      }
    </style>
  </defs>
  <!-- Generator: Adobe Illustrator 28.7.1, SVG Export Plug-In . SVG Version: 1.2.0 Build 142)  -->
  <g>
    <g id="ALSOVADASZ" class="cls-1">
      <g>
        <path class="cls-2" d="M421.86,595.03c-7.18-42.05-3.47-105.4-3.01-112.64l-19.28-60.27,3.6-165.12h96.94c-1.27-18.52,2.51-42.35,2.55-42.66l.25-1.55-.99-1.22-12.84-15.8-1.81-2.23-2.54,1.34-11.09,5.85-.62.33-.45.54-6.74,8.21c-1.59-.42-3.17-.85-4.76-1.27-.77-2.33-1.55-4.66-2.32-6.99l-.8-2.39h-7.79v-10.19l-.97-1.01-10.61-11.12-1.03-1.08h-3.55c-8.1-23.79-16.19-47.57-24.29-71.36l-.75-2.21-2.33-.15c-8.83-.58-17.66-1.15-26.49-1.73-9.71-2.7-19.42-5.4-29.13-8.09l-4.29-1.19-.14,4.45-.88,27.5-.02.73.27.68c5.85,14.75,11.7,29.51,17.55,44.26-6.24.63-12.49,1.25-18.73,1.88l-2.91.29-.23,2.92c-1.48,19.06-2.95,38.12-4.43,57.18l-23.75,1.04-2.98.13-.35,2.96-1.17,9.95-.26,2.22,1.9,1.17c4.46,2.75,8.92,5.5,13.38,8.26-.14,2.12-.28,4.24-.42,6.36-11.46,45.64-22.91,91.27-34.36,136.91l-.37,1.47.83,1.28c.28.43,6.92,10.61,17.87,18.23,10.13,7.06,11.22,26.53,11.22,34.58,0,12.58,19.25,88.34,20.07,91.56l.65,2.57,2.65.07c14.39.36,28.77.73,43.16,1.1,2.39,16.58,4.78,33.16,7.17,49.74l.52,3.59,3.57-.64c5.14-.93,10.27-1.85,15.41-2.78.31,2.48.62,4.95.93,7.43-4.23,1.25-8.47,2.51-12.7,3.76l-2.84.84.36,2.94,11.09,90.7.42,3.4,3.41-.34,21.41-2.17c-.71-10.04-5.24-71.8-12.14-112.17Z"/>
        <path class="cls-2" d="M507.98,338.98l3.33-.3-.15-3.34c-.08-1.89-2.14-46.37-8.66-64.79-.68-1.93-1.2-4.15-1.6-6.55h-90.89l-3.42,157.1,19.33,60.42-.05.67c-.05.68-4.56,68.06,2.88,111.66,6.9,40.41,11.44,101.9,12.2,112.65l23.57-2.39,3.55-.36-.43-3.54c-4.54-37.34-9.08-74.68-13.61-112.02,9.34-1.75,18.67-3.5,28-5.25l2.93-.55-.08-2.98-2.04-76.65-.11-4.01-3.96.65c-7.09,1.16-14.19,2.32-21.28,3.47-.35-4.8-1.15-13.06-2.78-19.59-2.17-8.71-1.08-24.49-1.07-24.65l.04-.49-.1-.48c-.42-1.98-1.46-7.3-1.65-10.19,1.04-.43,3.31-.79,5.23-.79h4.34s-.92-4.25-.92-4.25c-.37-1.68-.72-5.05-.1-6.92.61-1.7,6.1-7.93,10.83-12.68l1.26-1.26-.28-1.76c-.47-2.94-.93-5.88-1.4-8.82h3.41l.78-2.42c2.32-7.18,4.64-14.35,6.96-21.53.99-2.43,5.25-13.11,5.25-17.59,0-4.04-1.98-15.89-2.4-18.4.07-3.33.15-6.66.22-9.99,7.62-.69,15.24-1.37,22.86-2.06Z"/>
      </g>
    </g>
    <g id="HOMROGD" class="cls-1">
      <g>
        <path class="cls-2" d="M379.9,657.46l.47-.83,57.1-100.58-18.63-89.3-.02-.21-11.98-156.62.03-.29,13.77-126.64,8.4-34.82c-10.4-2.98-20.8-5.96-31.2-8.95l-3.22-.92-1.06,3.18-3.89,11.66-.18.54v25.17h-8.67v22.13l-31.24,6.03-2.84.55v16.59c-15.93,2.25-31.87,4.5-47.8,6.75l-3.01.43v50.9l4.15-.78,14.98-2.81v5.86h18.72c9.16,1.75,18.25,4.78,19.54,6.52,1.04,1.71-.16,10.27-2.53,17.94l-.19.61.04.64c.16,2.52,1.74,24.88,7.57,32.66,3.44,4.6,4.35,11.16,4.59,14.19-1.31,1.02-2.63,2.04-3.94,3.07l-2.52,1.96,1.73,2.69s2.09,3.63,1.84,11.75c-.31,9.93,8.73,36.25,9.76,39.22l.82,2.35h4.41c.77,7.78,2.65,28.33,2.65,42.05,0,17.46,5.74,90.61,5.99,93.72l.25,3.22h6.86c1.11,15.21,2.17,36.91,1.02,42.07-1.67,7.54-10.44,27.33-18.53,35.69-10.48,10.85-5.93,32.21-5.38,34.61.58,2.52,2.22,8.18,3.36,12.07-7.09.83-14.19,1.67-21.28,2.5l-3.5.41.44,3.5,5.98,47.83.42,3.34,3.35-.28,28.47-2.39-5.1-78.96Z"/>
        <path class="cls-2" d="M502.49,553.27l-13.45-49.62-10.46-38.27-.71-2.58h-3.96c-2.61-13.6-5.22-27.2-7.82-40.8l-.08-.43-.19-.4c-2.33-4.95-4.65-9.89-6.98-14.84v-50.54h-6.48c-.18-15.19-.37-30.38-.55-45.56l-.03-2.07-1.83-.97-2.52-1.35c1.95-38.77,3.9-77.54,5.85-116.31l4.38-14.19c.53.16,1.06.32,1.59.48l3.06.93,1.2-2.97,20.92-51.71,1.32-3.26-3.26-1.3c-2.19-.88-4.38-1.75-6.56-2.62,1.12-13.29,2.25-26.58,3.37-39.86l.23-2.77-2.64-.86-23.91-7.77-4.41-1.43-.17,4.64c-.02.5-1.81,50.04-4.11,60.98-1.68,8-6.28,17.77-8.53,22.27-.19-.05-.38-.11-.57-.16l-8.24,34.16-13.7,125.94,11.92,155.83,19.04,91.25-57.81,101.85,4.97,76.93,29.16-2.45,3.39-.29-.18-3.39-1.79-32.88-.17-3.2-3.2-.11c-4.65-.16-9.31-.32-13.96-.48v-15.83h8.89l.94-2.02,19.13-40.95.41-.89-.11-.97c-.67-6.09-1.33-12.17-2-18.26,3.39-.29,6.79-.59,10.18-.88l1.83-.16.91-1.59c9.3-16.27,18.59-32.54,27.89-48.81l27.1-5.08,3.73-.7-.99-3.66Z"/>
      </g>
    </g>
    <g id="Borsodbóta" class="cls-1">
      <g>
        <path class="cls-2" d="M361.23,264.88l46.61,47.07,61.58,39.82,82.27-3.27c17.84-8.51,61.42-31.88,70.5-47.8v-46.17l-4.9,2.15-15.12,6.61-.5.22-.41.36c-10.45,9.22-20.9,18.44-31.35,27.66l-31.1,4.57-4.07.6,1.24,3.92c1.53,4.86,3.07,9.71,4.6,14.57-7.32,2.2-14.65,4.4-21.97,6.6l-1.39-5.19,5.75-6.14,1.67-1.78-1.09-2.18-4.25-8.5-1.72-3.43-3.26,2.03c-10.28,6.39-21.5,11.52-24.01,10.98-3.74-1.25-25.76-16.03-38.76-25.05l-1.63-1.13-1.81.82c-6.7,3.05-13.4,6.09-20.1,9.14h-13.7c-16.97-19.75-33.95-39.5-50.92-59.25l-.2-.23-.24-.2-6.48-5.29,4.75,38.51Z"/>
        <g>
          <path class="cls-2" d="M483.54,611.08c2.06-3.2,4.13-6.41,6.19-9.61h17.93l-9.7-25.2-16.44-20.31-.55-23.82,8.93-27.79-3.69-22.12v-34.83l-7.37-30.42-35.27-73.37.19-.09-40.36-26.09-48.82-49.31-5.94-48.15-63.18-51.61-.97-.79h-116.18c-21.78-4.07-43.57-8.15-65.35-12.22l-1.18-.22-1.07.55-51.02,26.46-1.94,1,.05,2.18.47,19.84.08,3.42h16.59l.91-2.12c1.2-2.8,2.4-5.6,3.6-8.39l41.63-11.96,10.21,4.25.65.27h33.16c10.25,7.04,20.51,14.08,30.76,21.12l1.84,1.26,1.92-1.13,5.57-3.28c.78.87,1.56,1.73,2.34,2.6l1.04,1.16h73.86c6.33,1.67,12.65,3.34,18.98,5.01-7.98,8.65-15.96,17.31-23.93,25.96l-3.06,3.32,3.98,2.14c6.27,3.36,12.54,6.73,18.81,10.09,16.08,18.42,32.16,36.85,48.24,55.27l.21.24.24.2c2.71,2.17,5.42,4.34,8.13,6.51v6.23l.68.92c.93,1.27,1.86,2.54,2.78,3.81-2.94,2.45-5.88,4.9-8.81,7.34l-2.86,2.38,2.55,2.71c4.82,5.12,9.64,10.24,14.46,15.36,1.19,5.36,2.38,10.71,3.57,16.07l.61,2.74h17.65v-6.78c5.48-1.9,10.96-3.8,16.44-5.7l2.35-.82v-3.31c3.39,1.78,6.78,3.56,10.17,5.35,1.7,2.86,3.41,5.73,5.11,8.59-.57,7.51-1.14,15.01-1.7,22.52l-.14,1.81,1.4,1.15,12.62,10.39,5.72,4.72v-10.57c4.4-1.47,8.8-2.93,13.21-4.4,13.42,7,26.84,14.01,40.27,21.01v21.5c-.71,14.37-3.69,39.77-8.68,46-7.51,9.38-16.77,21.69-16.87,21.81l-1.86,2.47,2.23,2.15c1.42,1.37,2.85,2.75,4.27,4.12-2.31,1.15-4.61,2.3-6.92,3.46l-.76.38-.5.69-26.93,36.85-4.07,5.57h12.84l.96-.77c.91-.73,1.82-1.45,2.73-2.18,2.17,1.45,4.35,2.9,6.52,4.35-1.05,1.89-2.1,3.79-3.16,5.68l-1.25,2.25,1.77,1.86c3.99,4.19,7.97,8.38,11.96,12.57-1.42,1.34-2.84,2.68-4.26,4.02l-2.53,2.39,2.38,2.54,16.06,17.19,1.04,1.11h5.74c3.44,3.44,6.88,6.88,10.31,10.31l8.7,8.7-2.82-11.98c-1.15-4.87-2.29-9.74-3.44-14.62Z"/>
          <path class="cls-2" d="M750.52,311.71l-7.09-21.73-.79-2.41h-10.96c-1.56-8.49-3.11-16.98-4.67-25.48l-.8-4.37-4.06,1.81c-16.63,7.39-33.27,14.79-49.9,22.18-5.59-1.47-11.18-2.94-16.76-4.41l-2.14-.56-1.43,1.69c-9.22,10.94-29.73,33.44-29.73,33.44-18.75,19.54-62.3,40.51-68.15,43.28l-.65.31-85.91,3.42-12.8-8.27,30.78,64.02,7.75,31.95v35.09l3.87,23.23-9.09,28.28.47,20.26,15.68,19.37,9.79,25.49,9.86-6.67.81-.55.41-.89c4.52-9.87,9.05-19.74,13.57-29.61,3.54,3.31,7.08,6.61,10.63,9.92l3.68,3.44,1.94-4.65,3.22-7.72c1.12.62,2.24,1.25,3.36,1.87l2.87,1.6,1.78-2.76,18.9-29.29,2.3-3.57-3.94-1.58c-5.78-2.31-11.56-4.62-17.34-6.94-3.2-10.49-6.4-20.98-9.6-31.47l-.15-.49-.28-.42c-6.28-9.49-12.55-18.98-18.83-28.47-.83-22.6-1.32-47.83-.66-51.48.17-.38.37-.87.61-1.45,1.76-4.34,5.87-14.52,18.36-18.19,16.1-4.73,67.69-27.54,69.88-28.5,19.92-8.78,39.85-17.57,59.77-26.36,21.02-5.96,42.05-11.92,63.07-17.89l3.5-.99-1.13-3.46Z"/>
        </g>
      </g>
    </g>
    <g id="Szendrőlád" class="cls-1">
      <g>
        <path class="cls-2" d="M461.86,558.06c3.71-4.52,23.81-31.24-.24-52.75-28.79-25.76-85.28-112.12-87.67-115.79-.11-.17-.21-.35-.29-.54l-25.69-60.44-80.99-153.52s-.01,0-.02,0c-.02-.05-.03-.1-.05-.15l-.03-.06h0c-6.08-17.07-12.16-34.14-18.24-51.21l-1.68-4.72-4.05,2.95c-2.01,1.47-4.03,2.94-6.04,4.41-5.2-1.65-10.41-3.3-15.61-4.95l-3.05-.97-1.43,2.86-15.14,30.29-3.15,6.29,6.97-.91c.57-.07,14.21-1.63,17.1,9.36,2.82,10.73,4.37,23.2,4.94,28.4-4.8,2.49-9.6,4.97-14.4,7.46l-3.13,1.62,1.44,3.22,49.97,112.06,1.6,3.6,3.51-1.79c.66-.33,1.43-.65,2.13-.89,0,4.16.02,7.06.03,8.87-14.2,6.97-28.41,13.95-42.61,20.92l-1.87.92-.21,2.07-3.03,30.29-.1.98.4.9,14.03,31.8,1.65,3.74,3.58-1.97c7.78-4.29,15.56-8.58,23.34-12.87,21.55,26.94,43.11,53.89,64.66,80.83l1.55,1.94,2.39-.68c4.5-1.29,9.01-2.57,13.51-3.86,11.04,13.74,22.08,27.49,33.13,41.24-19.16,14.37-38.32,28.74-57.48,43.11l-2.34,1.75,1.13,2.69,6.06,14.39.61,1.46,1.47.57,23.92,9.33,109.36-42.25Z"/>
        <path class="cls-2" d="M562.38,546.67l1-.53,27.26-14.39,7.95-4.2-8.58-2.68-24.23-7.57-.41-.13-.43-.03c-6.56-.49-13.11-.97-19.66-1.46-17.37-9.18-34.74-18.36-52.11-27.54-2.13-1.5-23.69-16.92-31.14-32.49-3.71-7.75-4.71-15.5-5.59-22.34-1.08-8.36-2.01-15.57-7.39-20.46-5.7-5.18-13.1-24.89-16.34-34.59,4.19-3.78,13.52-13.9,21.84-34.7,10.61-26.53,30.21-50.94,43.77-63.79,13.84-13.11,34.57-24.29,34.78-24.41l1.28-.68.48-1.37,4.54-12.87,2.87-8.14-7.9,3.47c-3,1.32-27.8,12.31-37.68,20.16-1.27-.64-2.54-1.27-3.82-1.91l-1.44-.72-1.51.55c-10.34,3.76-34.84,13.12-38.87,18.76-2.32,3.25-14.24,14.81-23.42,23.43l-1.6-2.62v-20.58l-1.6-1.12c-2.13-1.49-4.26-2.98-6.39-4.48-2.16-9.38-4.33-18.75-6.49-28.13l-.82-3.54-3.56.71-7.57,1.51-3.05.61.04,3.11.76,53,.02,1.16.67.95c.86,1.24,1.46,3.09,1.19,3.66-1.13,2.35-3.6,8.12-4.91,11.19-7.98,1.04-15.96,2.07-23.94,3.11-3.4-10.61-6.79-21.23-10.19-31.84,2.07-1.04,4.15-2.07,6.22-3.11l3.15-1.57-1.38-3.24-50.73-118.88-1.51-3.54-3.49,1.61c-13.04,6.02-26.08,12.04-39.12,18.05l80.88,153.32c.05.09.09.17.13.26l25.62,60.29c3.49,5.32,58.96,89.67,86.31,114.14,31.01,27.74.6,62.88.29,63.23-.37.42-.84.75-1.36.95l-103.05,39.81,11.09,4.32,1.26.49,1.28-.43c4.93-1.64,9.86-3.29,14.79-4.93,12.51,32.07,17.17,35.2,18.91,35.87,2.34,2.22,6.25,16.22,7.62,24.43,0,.87-1.56,3.66-2.49,5.33-2.08,3.75-4.05,7.29-3.03,10.59.47,1.53,1.51,2.73,3,3.47,2.29,1.15,6.56,3.28,77.29-47.25l2.13-1.52-.71-2.53c-1.5-5.35-3-10.71-4.5-16.06,7.46-4.07,14.92-8.14,22.37-12.2l1.95-1.06v-12.23c16.82-10.24,33.63-20.47,50.45-30.71l3-1.83-1.64-3.11c-1.44-2.74-2.89-5.49-4.33-8.23.22.02.43.04.65.07l1.12.11Z"/>
      </g>
    </g>
    <g id="Sajókaza">
      <g>
        <path class="cls-2" d="M313.22,474.78l-59.78-33.56c-1.1-.62-1.79-1.79-1.79-3.05v-151.48l-13.48-27.3-.17-.04.04-.23-.02-.05.03-.02c1.43-8.76,2.87-17.52,4.3-26.28l.71-4.36-4.41.3-15.87,1.08-2.83.19-.4,2.8c-2.15,15.08-4.31,30.15-6.46,45.23h-70.17l.35,3.82c.29,3.18.58,6.36.87,9.54-.73.37-1.47.73-2.2,1.1l-1.53.77-.34,1.68-2.71,13.55-.14.71.15.71c3.47,16.29,6.93,32.59,10.4,48.88h-4.82v33.3l-11.32-3.85-4.52-1.54-.11,4.77-2.17,95.39-.08,3.58h24.49l.3-.05c3.86-.69,7.72-1.38,11.57-2.07.88,6.7,1.65,13.21,1.65,14.34,0,3.46,0,5.19,65.64,19.14l.74.16.74-.17c11.1-2.47,22.19-4.93,33.29-7.4,14.93,4.15,29.85,8.29,44.78,12.44l5.26-52.05Z"/>
        <g>
          <path class="cls-2" d="M673.06,255.16l-10.84-5.96-1.01-.56-1.14.15c-28.35,3.82-56.71,7.65-85.06,11.47-2.13-13.15-4.27-26.3-6.41-39.45l-.79-4.84-4.32,2.32-15.17,8.13-1.77.95-.08,2c-.51,12.91-1.02,25.83-1.53,38.74-43.59,13.94-87.19,27.89-130.78,41.83-42.99-5.79-85.98-11.58-128.97-17.37v-24.26l-2.89-.51-33.6-5.96c-.58-.13-1.16-.27-1.73-.4l11.31,22.89c.24.48.36,1.01.36,1.55v150.24l56.22,31.56,17.89-37c.63-1.31,2.01-2.09,3.45-1.96l56.66,4.81,269.31-101.81,12.66-72.89.43-2.46-2.19-1.2Z"/>
          <path class="cls-2" d="M589.65,366.61l-195.06,73.74c-.49.19-1.01.26-1.53.21l-55.05-4.67-17.62,36.44c.04.28.06.57.03.87l-5.61,55.53c1.75.49,3.51.97,5.26,1.46,6.74,6.13,13.47,12.27,20.21,18.41l3.51,3.2,2.01-4.3c2.03-4.35,4.07-8.69,6.1-13.04l5.11,1.42c1.25,3.75,2.5,7.49,3.75,11.24l.49,1.46,1.4.63,15.72,7.05,1.28.58,1.33-.47c2.16-.77,4.33-1.54,6.49-2.32,4.9,1.51,9.8,3.02,14.7,4.53l2.79.86,1.35-2.59,1.49-2.86c8.09,8.11,16.18,16.21,24.27,24.31l4.47,4.48,1.42-6.17c2.8-12.21,5.61-24.42,8.42-36.63,15.47,3.85,30.93,7.7,46.4,11.55l4.93,1.23-.61-5.04c-4.77-39.71-9.53-79.42-14.3-119.13,35.62-12.87,71.24-25.74,106.86-38.62l2.61-.94-.32-2.75c-.76-6.55-1.52-13.1-2.29-19.66Z"/>
        </g>
      </g>
    </g>
  </g>
</svg>